<?xml version="1.0" encoding="UTF-8" standalone="no"?>
<!DOCTYPE svg PUBLIC "-//W3C//DTD SVG 1.0//EN" "http://www.w3.org/TR/2001/REC-SVG-20010904/DTD/svg10.dtd">
<svg xmlns="http://www.w3.org/2000/svg" version="1.0" width="64" height="64" viewBox="0 0 504 504">
<path
  d="M 48,132 L 64,302 126,395 103,442 C 140,470 319,473 400,442 L 377,395 439,302 455,132 377,279 L 361,93 291,271 251,77 212,271 142,93 126,279 L 48,132 z"
  style="fill:#ffffff;stroke:#000000;stroke-width:16;" />
<circle cx="40" cy="110" r="26" style="fill:#ffffff;stroke:#000000;stroke-width:16;"/>
<circle cx="138" cy="73" r="26" style="fill:#ffffff;stroke:#000000;stroke-width:16;"/>
<circle cx="250" cy="52" r="26" style="fill:#ffffff;stroke:#000000;stroke-width:16;"/>
<circle cx="362" cy="73" r="26" style="fill:#ffffff;stroke:#000000;stroke-width:16;"/>
<circle cx="460" cy="110" r="26" style="fill:#ffffff;stroke:#000000;stroke-width:16;"/>
<path d="M 103,442 C 202,400 294,397 392,442" style="fill:#ffffff;stroke:#000000;stroke-width:16;" />
<path d="M 126,395 C 219,365 274,359 377,395" style="fill:#ffffff;stroke:#000000;stroke-width:16;" />
<path d="M 95,349 C 194,307 303,304 401,349" style="fill:#ffffff;stroke:#000000;stroke-width:16;" />
</svg>
